<svg xmlns="http://www.w3.org/2000/svg" width="441.69" height="60" viewBox="0 0 957.88 130.747">
    <g id="color-wheel" transform="translate(0 -10.624)">
        <path id="Tracé_8" data-name="Tracé 8" d="M380.453,163.116l-7.05-6.3-14.364,5.52-1.954,8.066-7.512,34.076,24.392,10.626,3.027-3.908a65.037,65.037,0,0,0,3.461-48.085Z" transform="translate(-254.152 -106.29)" fill="#fe7d43"/>
        <g id="Groupe_2" data-name="Groupe 2" transform="translate(0 11.724)">
            <g id="XMLID_855_" transform="translate(0 0)">
                <g id="Groupe_1" data-name="Groupe 1">
                    <path id="Tracé_9" data-name="Tracé 9" d="M289.279,316.284l-8.561,4.135-22.009,15.5,9.809,21.884,7,1.735v0a64.945,64.945,0,0,0,35.5-32.587Z" transform="translate(-188.091 -233.95)" fill="#ee6161"/>
                    <path id="Tracé_10" data-name="Tracé 10" d="M167.115,370.508l-4.67-3.273L134.539,363l-13.407,21.54,6.171,7.773v0a65.043,65.043,0,0,0,48.195,1.193v0Z" transform="translate(-88.067 -267.912)" fill="#c2a1d5"/>
                    <path id="Tracé_11" data-name="Tracé 11" d="M61.565,296.08,46.054,271.714,18.99,280.087v11.725a65.046,65.046,0,0,0,34.052,34.134v0l9.808-22.427Z" transform="translate(-13.806 -201.546)" fill="#8ac9fe"/>
                    <path id="Tracé_12" data-name="Tracé 12" d="M11.46,138.94l-7.349,8.144h0a65.051,65.051,0,0,0,1.075,48.2h0l22.577-9.455,2.952-6.78,1.772-33.352Z" transform="translate(0 -105.014)" fill="#75cdd5"/>
                    <path id="Tracé_13" data-name="Tracé 13" d="M60.6,38.284H47.541A65.028,65.028,0,0,0,15.05,73.9h0l22.861,8.74,14.948-7.567L72.629,57.295Z" transform="translate(-10.942 -31.834)" fill="#6cf5c2"/>
                    <path id="Tracé_14" data-name="Tracé 14" d="M330.842,192.412l-1.2-5.324-14.757,3.741-.795,6.81a22.869,22.869,0,0,1-1.013,16.935l.319,5.434,9.642,5.131,5.767-2.785a40.469,40.469,0,0,0,2.034-29.941Z" transform="translate(-227.62 -140.02)" fill="#fd6930"/>
                    <path id="Tracé_15" data-name="Tracé 15" d="M274.386,287.784a22.879,22.879,0,0,1-12.423,11.555l-2.1,3.959,4.387,11.235,3.728,1.292a40.465,40.465,0,0,0,22.14-20.262Z" transform="translate(-188.927 -213.229)" fill="#e94444"/>
                    <path id="Tracé_16" data-name="Tracé 16" d="M195.546,329.54a22.856,22.856,0,0,1-16.962-.216l-4.6.5L168.5,340.986l3.048,4.415a40.48,40.48,0,0,0,30,.625Z" transform="translate(-122.509 -243.43)" fill="#a274bf"/>
                    <path id="Tracé_17" data-name="Tracé 17" d="M117.894,278.927l-3.6-2.6L102.538,280.4l-.828,5.312a40.472,40.472,0,0,0,21.28,21.16l7.032-16.078a22.876,22.876,0,0,1-12.128-11.863Z" transform="translate(-73.947 -204.897)" fill="#26a6fe"/>
                    <path id="Tracé_18" data-name="Tracé 18" d="M193.382,22.578a64.937,64.937,0,0,0-59.3-1.474l10.512,22.11L155.035,47.9l32.86,5.563,9.561-20.289Z" transform="translate(-97.481 -14.654)" fill="#fee97d"/>
                </g>
            </g>
        </g>
        <path id="Tracé_19" data-name="Tracé 19" d="M368.885,51.817a1.756,1.756,0,0,1-1.138,2.249l-8.844,2.76-16.752,5.227A47.413,47.413,0,0,0,319.7,34.989l8.511-15.341,4.5-8.118a1.754,1.754,0,0,1,2.416-.669,76.1,76.1,0,0,1,33.752,40.956Z" transform="translate(-232.435 0)" fill="#fec165"/>
        <path id="Tracé_20" data-name="Tracé 20" d="M107.191,206.167a22.7,22.7,0,0,1,1.351-7.749l-.2-9.509H98.559l-6.408,3.244a40.494,40.494,0,0,0,.792,30l16.184-6.78a22.7,22.7,0,0,1-1.935-9.207Z" transform="translate(-65.179 -129.619)" fill="#2abcc8"/>
        <path id="Tracé_21" data-name="Tracé 21" d="M127.137,121.929l-8.189-2.646a40.445,40.445,0,0,0-20.139,22.249L115.2,147.8a22.88,22.88,0,0,1,11.282-12.668v0l3.755-4.228Z" transform="translate(-71.838 -78.999)" fill="#00f2a6"/>
        <path id="Tracé_22" data-name="Tracé 22" d="M209.508,109.157h0a40.413,40.413,0,0,0-36.915-.764l7.534,15.846a22.833,22.833,0,0,1,20.871.265l5.741.283,5.617-7.49Z" transform="translate(-125.479 -68.108)" fill="#fedf30"/>
        <path id="Tracé_23" data-name="Tracé 23" d="M310.6,126.948l-6.617,2.064-16.627,5.227a23.124,23.124,0,0,0-11.051-13l8.486-15.3,3.36-6.06A47.413,47.413,0,0,1,310.6,126.948Z" transform="translate(-200.883 -64.895)" fill="#fdb441"/>
    </g>
    <path id="Tracé_27" data-name="Tracé 27" d="M35.92-17.12c0,4-2.64,6.08-7.2,6.08H18.64v-12.4h9.92C33.12-23.44,35.92-21.12,35.92-17.12ZM34.56-39.28c0,3.84-2.48,5.84-6.96,5.84H18.64V-45.2H27.6C32.08-45.2,34.56-43.12,34.56-39.28Zm15.2,24A13.618,13.618,0,0,0,38.96-28.8a12.741,12.741,0,0,0,9.52-12.8c0-8.88-6.8-14.56-18.24-14.56H4.96V0H31.12C42.96,0,49.76-6,49.76-15.28Zm21.6-5.44c0-7.68,3.76-9.92,10.24-9.92h3.76V-45.12c-6,0-10.88,3.2-14,7.92v-7.44H57.68V0H71.36ZM89.2-22.4C89.2-8.32,97.92.64,108.8.64c6.64,0,11.36-3.04,13.84-6.96V0h13.68V-44.64H122.64v6.32c-2.4-3.92-7.12-6.96-13.76-6.96C97.92-45.28,89.2-36.48,89.2-22.4Zm33.44.08c0,7.12-4.56,11.04-9.76,11.04-5.12,0-9.76-4-9.76-11.12s4.64-10.96,9.76-10.96C118.08-33.36,122.64-29.44,122.64-22.32ZM177.04,0h13.6V-26.08c0-12-6.88-19.04-17.2-19.04-6,0-10.8,2.64-13.52,6.4v-5.92H146.24V0h13.68V-24.24c0-6.08,3.36-9.44,8.56-9.44s8.56,3.36,8.56,9.44Zm20.4-22.4c0,14.08,8.72,23.04,19.68,23.04,6.56,0,11.28-2.96,13.76-7.04V0h13.68V-59.2H230.88v20.72c-2.72-4.08-7.84-6.8-13.76-6.8C206.16-45.28,197.44-36.48,197.44-22.4Zm33.44.08c0,7.12-4.56,11.04-9.76,11.04-5.12,0-9.76-4-9.76-11.12s4.64-10.96,9.76-10.96C226.32-33.36,230.88-29.44,230.88-22.32Z" transform="translate(177 91.374)"/>
    <path id="Tracé_28" data-name="Tracé 28" d="M2.96-27.92C2.96-11.2,15.68.48,31.36.48c11.6,0,21.6-5.76,25.84-16.64H46.24C43.28-10.24,38-7.44,31.36-7.44c-11.04,0-19.04-7.92-19.04-20.48s8-20.4,19.04-20.4c6.64,0,11.92,2.8,14.88,8.72H57.2C52.96-50.48,42.96-56.32,31.36-56.32,15.68-56.32,2.96-44.56,2.96-27.92Zm106.88,5.84c0-13.84-9.92-22.72-22.48-22.72S64.88-35.92,64.88-22.08,74.4.72,86.96.72C99.6.72,109.84-8.24,109.84-22.08Zm-35.68,0c0-10,6.16-14.8,13.04-14.8,6.8,0,13.28,4.8,13.28,14.8S93.76-7.2,86.96-7.2C80.08-7.2,74.16-12.08,74.16-22.08ZM118.88,0H128V-59.2h-9.12ZM182-22.08c0-13.84-9.92-22.72-22.48-22.72s-22.48,8.88-22.48,22.72S146.56.72,159.12.72C171.76.72,182-8.24,182-22.08Zm-35.68,0c0-10,6.16-14.8,13.04-14.8,6.8,0,13.28,4.8,13.28,14.8S165.92-7.2,159.12-7.2C152.24-7.2,146.32-12.08,146.32-22.08Zm53.84-1.12c0-9.36,4.16-12.16,10.88-12.16h2.32V-44.8c-6.24,0-10.64,2.72-13.2,7.12v-6.4h-9.12V0h9.12Zm54.48,10.88c-.48-15.92-25.36-10.96-25.36-19.84,0-2.96,2.56-4.96,7.44-4.96,4.96,0,7.92,2.64,8.24,6.48h9.12c-.48-8.8-7.04-14.16-17.04-14.16-10.4,0-16.96,5.68-16.96,12.72,0,16.16,25.6,11.2,25.6,19.84,0,3.04-2.8,5.28-8.08,5.28-5.04,0-8.48-2.96-8.8-6.56h-9.44c.4,8,7.84,14.24,18.4,14.24C248.16.72,254.64-4.88,254.64-12.32Z" transform="translate(427 93.374)"/>
    <path id="Tracé_29" data-name="Tracé 29" d="M2-53.12H18V0h3.6V-53.12h16v-3.04H2ZM54.64,0h3.44L72-38.48,85.84,0h3.44l13.68-43.44H99.28L87.6-4.24,73.76-43.44H70.32L56.4-4.08,44.72-43.44H40.96Zm56.24,0h3.6V-43.44h-3.6Zm1.84-53.12a2.962,2.962,0,0,0,3.04-3.12,3.008,3.008,0,0,0-3.04-3.12,3.008,3.008,0,0,0-3.04,3.12A2.962,2.962,0,0,0,112.72-53.12ZM129.44-11.6c0,8.56,3.6,11.6,11.04,11.6h5.44V-3.2h-4.88c-5.84,0-8-1.84-8-8.4V-40.32h12.88v-3.12H133.04V-54.48h-3.6v11.04h-6.56v3.12h6.56Zm27.76,0c0,8.56,3.6,11.6,11.04,11.6h5.44V-3.2H168.8c-5.84,0-8-1.84-8-8.4V-40.32h12.88v-3.12H160.8V-54.48h-3.6v11.04h-6.56v3.12h6.56ZM202-40.96c8.8,0,17.28,5.6,16.72,17.68H184.64C185.04-35.28,193.12-40.96,202-40.96Zm20,26.72h-3.76c-1.44,7.2-7.6,11.76-16.16,11.76-8.96,0-17.12-5.76-17.44-17.84h37.52a34.86,34.86,0,0,0,.16-4.32c0-10.08-7.2-19.36-20.24-19.36-12.32,0-21.12,8.4-21.12,22.24,0,13.92,8.96,22.4,21.12,22.4C213.2.64,220.32-5.68,222-14.24Zm14.8-10.8c0-11.84,7.44-15.52,14.88-15.52h1.2v-3.76c-8.56,0-13.92,3.52-16.08,9.84v-8.96h-3.6V0h3.6Z" transform="translate(705 93.374)"/>
</svg>
